<svg viewBox="0 0 60 60" xmlns="http://www.w3.org/2000/svg"><g fill="none" fill-rule="evenodd"><path d="M30 60c16.569 0 30-13.431 30-30C60 13.431 46.569 0 30 0 13.431 0 0 13.431 0 30c0 16.569 13.431 30 30 30Z" fill="#ffffff" class="fill-57bb63"></path><path d="M38.676 41.538a1.244 1.244 0 0 1-.629-.195c-.002 0-.253-.162-.768-.442a26.585 26.585 0 0 0-2.222-1.075c-1.891-.819-4.539-1.725-7.498-2.073a31.597 31.597 0 0 0-2.618-.198c-3.76-.126-6.716.443-7.92.724-.404.094-.59.151-.59.151-.67.2-1.373-.192-1.57-.873a1.292 1.292 0 0 1 .858-1.598c.086-.024 3.898-1.155 9.301-.977.901.03 1.849.1 2.827.215 6.565.78 11.451 3.916 11.542 3.963a1.3 1.3 0 0 1 .401 1.774 1.251 1.251 0 0 1-1.114.604Zm4.603-7.591c-.31.502-.848.772-1.394.753a1.56 1.56 0 0 1-.786-.245c-.001.002-.057-.037-.206-.125-.151-.09-.378-.22-.672-.38a30.954 30.954 0 0 0-2.555-1.24c-2.175-.94-5.22-1.98-8.622-2.378a35.754 35.754 0 0 0-3.01-.228c-4.328-.145-7.728.509-9.11.832-.462.11-.672.171-.673.174a1.58 1.58 0 0 1-1.962-1.095c-.246-.854.234-1.748 1.074-1.994.106-.034 4.518-1.34 10.772-1.133 1.043.035 2.137.113 3.27.247 7.607.906 13.262 4.53 13.375 4.594.739.474.964 1.466.499 2.218Zm3.74-7.083a1.893 1.893 0 0 1-1.675.904 1.851 1.851 0 0 1-.941-.294s-.068-.044-.245-.15a26.519 26.519 0 0 0-.792-.448 38.088 38.088 0 0 0-3.009-1.458c-2.564-1.108-6.151-2.334-10.157-2.804a42.242 42.242 0 0 0-3.55-.266c-5.947-.202-10.41.879-11.346 1.131-.133.035-.18.05-.18.05-1.006.299-2.06-.29-2.355-1.312-.294-1.023.281-2.097 1.29-2.396.127-.035 5.334-1.579 12.715-1.333 1.231.04 2.521.13 3.859.29 8.981 1.07 15.65 5.346 15.785 5.423a1.953 1.953 0 0 1 .6 2.663Z" fill="#000000" class="fill-ffffff"></path></g></svg>